# xmcd CD database file
#
# Track frame offsets:
#	150
#	24903
#	45539
#	75138
#	94146
#	117002
#	139068
#	164354
#	183700
#	207496
#	230070
#	256691
#	281329
#	303267
#
# Disc length: 4335 seconds
#
# Revision: 2
# Processed by: cddbd v1.5.2PL0 Copyright (c) Steve Scherf et al.
# Submitted via: CDex 1.70beta2
#
DISCID=af10ed0e
DTITLE=Various Artist - Smooth Jazz Cafe 1
DYEAR=1999
DGENRE=Jazz
TTITLE0=Don Grusin - Outback Oasis
TTITLE1=Nicky Holland - Ladykiller
TTITLE2=Pete Belasco - Without Within
TTITLE3=String Connection - Bizzaramente
TTITLE4=Basia and Danny White - Simple Pleasures
TTITLE5=Michael Franks - Barefoot On The Beach
TTITLE6=John Scofield - Tulle
TTITLE7=Bemibek - Powrotna Bossa Nova
TTITLE8=Mark Ledford - The Way I Feel
TTITLE9=Eric Marienthal - Easy Street
TTITLE10=Laima - What's Forever
TTITLE11=Russ Freeman and The Rippingtones - Taos
TTITLE12=Vanessa Williams - Sister Moon
TTITLE13=Acoustic Alchemy - Lazeez
EXTD=YEAR: 1999
EXTT0=
EXTT1=
EXTT2=
EXTT3=
EXTT4=
EXTT5=
EXTT6=
EXTT7=
EXTT8=
EXTT9=
EXTT10=
EXTT11=
EXTT12=
EXTT13=
PLAYORDER=
